<?xml version="1.0" encoding="UTF-8"?> <svg xmlns="http://www.w3.org/2000/svg" width="199" height="39" viewBox="0 0 199 39" fill="none"><g clip-path="url(#clip0_1_169)"><path d="M7.48414 5.96765C7.65638 6.30876 7.85902 6.37631 8.16636 6.27499L13.5599 4.36342C13.8673 4.22833 14.0024 4.02231 13.8673 3.6812L13.4215 2.31339C13.3201 2.00605 13.0466 1.83719 12.7055 2.00605L7.61923 4.63361C7.27812 4.80585 7.14303 4.97472 7.27812 5.28205L7.48414 5.96427V5.96765Z" fill="black"></path><path d="M11.4086 7.53488C11.341 7.32886 11.206 7.22754 10.9999 7.22754H10.1117C9.90568 7.22754 9.77059 7.32886 9.66927 7.53488L0.0439078 30.6763C-0.124958 31.0849 0.216151 31.3923 0.486337 31.3923H2.43505C2.67484 31.3923 2.80993 31.2572 2.87748 31.0849L4.82282 26.3769H16.3597L18.3051 31.0512C18.3726 31.2572 18.5111 31.3923 18.7475 31.3923H20.6928C21.034 31.3923 21.3075 31.0512 21.1724 30.71L11.4086 7.53488ZM5.84614 23.8473L10.5575 12.4489L15.3026 23.8473H5.84614Z" fill="black"></path><path d="M50.1059 19.8553H42.9393C42.6319 19.8553 42.4259 20.0613 42.4259 20.3315V21.6959C42.4259 21.9695 42.6319 22.1755 42.9393 22.1755H47.5459V27.1571C46.0092 28.3526 43.7566 29.1362 41.0615 29.1362C36.5224 29.1362 32.1217 24.5295 32.1555 19.4433C32.1892 13.9484 36.5561 9.75036 41.2675 9.75036C45.0906 9.75036 47.8566 12.2428 48.5017 12.9588C48.674 13.1648 48.9441 13.1648 49.1164 12.9926L50.3795 11.7295C50.5855 11.5234 50.6193 11.2499 50.447 11.0472C48.5017 8.72703 44.8508 7.22412 41.2641 7.22412C35.3606 7.22412 29.1497 12.0706 29.1497 19.4433C29.1497 26.816 35.4281 31.659 41.0615 31.659C44.6448 31.659 48.7415 30.2946 50.447 28.6228C50.5146 28.5553 50.5821 28.4168 50.5821 28.2817V20.3281C50.5821 20.0546 50.3761 19.8519 50.1059 19.8519V19.8553Z" fill="black"></path><path d="M120.736 21.4594C123.195 20.5374 125.069 18.0483 125.069 14.6001C125.069 9.88874 121.827 7.53475 118.791 7.50098H108.517C108.209 7.50098 108.007 7.74077 108.007 8.01433V30.9126C108.007 31.1861 108.209 31.3888 108.517 31.3888H110.53C110.803 31.3888 111.009 31.1827 111.009 30.9126V21.8681H117.662L122.269 30.8788C122.404 31.1523 122.712 31.3888 122.985 31.3888H124.968C125.241 31.3888 125.613 31.1152 125.41 30.6728L120.736 21.4561V21.4594ZM117.835 19.3452H111.009V10.0272H117.798C121.793 10.0272 122.063 13.0296 122.063 14.6001C122.063 16.6839 121.276 19.3452 117.831 19.3452H117.835Z" fill="black"></path><path d="M145.951 7.53488C145.883 7.32886 145.745 7.22754 145.539 7.22754H144.654C144.448 7.22754 144.313 7.32886 144.208 7.53488L134.583 30.6729C134.414 31.0816 134.755 31.3889 135.029 31.3889H136.974C137.214 31.3889 137.349 31.2538 137.416 31.0816L139.365 26.3736H150.899L152.844 31.0478C152.915 31.2538 153.05 31.3889 153.29 31.3889H155.235C155.576 31.3889 155.85 31.0478 155.715 30.7067L145.954 7.53488H145.951ZM140.388 23.8473L145.1 12.4489L149.845 23.8473H140.392H140.388Z" fill="black"></path><path d="M88.5601 5.22479C89.4754 5.83271 90.3366 6.54195 91.1235 7.32886C91.8901 8.09551 92.5926 8.9466 93.2005 9.8551C93.8186 10.7771 94.3421 11.7532 94.7609 12.7596C94.9534 13.2257 95.4059 13.506 95.8788 13.506C96.0341 13.506 96.1929 13.4756 96.3415 13.4114C96.9595 13.1547 97.2533 12.4455 96.9967 11.8308C96.5171 10.6792 95.9193 9.56127 95.2101 8.50755C94.5109 7.46733 93.7105 6.49466 92.8324 5.61994C91.934 4.72157 90.9479 3.91101 89.8975 3.21191C89.3403 2.8404 88.5905 2.99238 88.2224 3.54964C87.8509 4.1069 88.0028 4.85666 88.5601 5.22479Z" fill="black"></path><path d="M97.25 17.9842C96.5812 17.9842 96.0409 18.5246 96.0409 19.1933C96.0409 20.3011 95.9328 21.4021 95.72 22.4659C95.5073 23.5399 95.1898 24.5937 94.7744 25.5967C94.3556 26.6133 93.8321 27.5927 93.2141 28.5113C92.6095 29.4198 91.907 30.2743 91.1235 31.0578C90.3501 31.8312 89.5024 32.5304 88.5973 33.1349C87.6752 33.7529 86.6891 34.2798 85.6725 34.702C84.6661 35.1174 83.609 35.4382 82.5316 35.651C80.4073 36.0732 78.1242 36.0732 75.9796 35.651C74.9056 35.4382 73.8451 35.1174 72.8218 34.6918C71.8221 34.2764 70.8494 33.7529 69.9308 33.1383C69.0291 32.5304 68.178 31.8312 67.4046 31.0545C66.6278 30.2811 65.9287 29.4266 65.3174 28.5147C64.7061 27.6062 64.1792 26.6234 63.7571 25.6035C63.3349 24.5768 63.0141 23.5129 62.8047 22.4457C62.5953 21.3717 62.4872 20.2774 62.4872 19.1933C62.4872 18.1092 62.5953 16.9879 62.808 15.9139C63.0208 14.8366 63.3417 13.7761 63.7672 12.7629C64.186 11.7497 64.7162 10.7635 65.3377 9.83814C65.9456 8.93639 66.6413 8.09544 67.4046 7.33554C68.1746 6.56214 69.0291 5.86303 69.9376 5.25174C70.8528 4.63706 71.8322 4.11358 72.8488 3.69141C73.8451 3.27938 74.8887 2.96191 75.9458 2.74914C78.0904 2.31684 80.3634 2.31009 82.535 2.73901C83.1935 2.8741 83.8285 2.4418 83.9568 1.7866C84.0852 1.1314 83.6596 0.493091 83.0044 0.364752C80.5255 -0.121582 77.9215 -0.118205 75.473 0.378262C74.2605 0.621429 73.0683 0.982802 71.9234 1.45563C70.7583 1.93858 69.637 2.53975 68.59 3.24223C67.5498 3.94133 66.5737 4.74176 65.6923 5.62662C64.8209 6.49459 64.0273 7.45713 63.3315 8.49059C62.6189 9.55106 62.0144 10.6791 61.5314 11.8409C61.0485 13.0027 60.6803 14.2151 60.4338 15.4512C60.1906 16.6806 60.069 17.9403 60.069 19.2034C60.069 20.4666 60.1906 21.6925 60.4304 22.9185C60.6702 24.1445 61.0383 25.3637 61.5213 26.5356C62.0076 27.7075 62.6088 28.8322 63.3079 29.8724C64.0036 30.9126 64.8074 31.892 65.6923 32.7735C66.5771 33.6584 67.5498 34.4588 68.5866 35.1579C69.6404 35.8604 70.7515 36.4582 71.893 36.9344C73.0616 37.4207 74.2808 37.7922 75.5101 38.032C76.7361 38.2752 77.9992 38.3968 79.2657 38.3968C80.5322 38.3968 81.7886 38.2752 83.0044 38.032C84.2371 37.7888 85.4462 37.4241 86.6013 36.9479C87.7664 36.4649 88.8945 35.8604 89.9482 35.1545C90.9816 34.4622 91.9577 33.6584 92.8392 32.7769C93.7342 31.8853 94.5413 30.9025 95.2303 29.8656C95.9328 28.8153 96.534 27.694 97.0102 26.5322C97.4864 25.3839 97.8545 24.1782 98.0977 22.9455C98.3374 21.7263 98.4624 20.4666 98.4624 19.2034C98.4624 18.5347 97.922 17.9944 97.2533 17.9944L97.25 17.9842Z" fill="black"></path><path d="M71.0251 15.7754C71.2514 15.2317 71.5317 14.7082 71.8593 14.2185C72.1767 13.7456 72.5482 13.2965 72.9535 12.8878C73.3622 12.4825 73.8147 12.1076 74.3044 11.78C74.8583 11.4085 75.0069 10.6554 74.6354 10.1015C74.2639 9.54764 73.5142 9.39904 72.9569 9.77054C72.3389 10.186 71.7647 10.6588 71.248 11.1755C70.7279 11.6922 70.2618 12.263 69.8565 12.8642C69.4377 13.4856 69.0797 14.1543 68.7927 14.8433C68.509 15.5255 68.2894 16.2415 68.1442 16.9777C67.999 17.7039 67.9281 18.4503 67.9281 19.1899C67.9281 19.9295 67.999 20.6523 68.1375 21.3851C68.2793 22.1045 68.4955 22.8239 68.7825 23.5196C69.0696 24.212 69.4242 24.8773 69.8363 25.4886C70.2449 26.0999 70.7177 26.6774 71.2446 27.2043C71.7681 27.7311 72.3422 28.204 72.9535 28.6092C73.5682 29.0213 74.2234 29.3725 74.909 29.663C75.598 29.9467 76.3173 30.1662 77.0401 30.308C77.7594 30.4533 78.5092 30.5276 79.259 30.5276C80.0087 30.5276 80.7518 30.4533 81.4644 30.308C82.1972 30.1628 82.9132 29.95 83.5921 29.6697C84.2878 29.3793 84.9531 29.0213 85.5678 28.6092C86.1791 28.2006 86.7533 27.7278 87.2734 27.2076C87.7968 26.6875 88.273 26.1066 88.6851 25.4852C89.1005 24.8638 89.4551 24.2018 89.7388 23.5162C90.0225 22.834 90.2353 22.1214 90.3771 21.3987C90.5223 20.6759 90.5933 19.9329 90.5933 19.1899C90.5933 18.4469 90.5223 17.7039 90.3771 16.9811C90.2319 16.2449 90.0124 15.5255 89.7287 14.8399C89.445 14.1577 89.0904 13.4991 88.6749 12.8777C88.2562 12.2596 87.7833 11.6821 87.2734 11.1755C86.7533 10.6486 86.169 10.1724 85.5408 9.75366C84.9835 9.38215 84.2338 9.53413 83.8623 10.0914C83.4941 10.6486 83.6427 11.3984 84.2 11.7699C84.6931 12.0975 85.1524 12.4724 85.5611 12.8878C85.9663 13.2897 86.3378 13.7456 86.6688 14.232C86.993 14.7183 87.2734 15.2384 87.4996 15.7754C87.7225 16.3124 87.8914 16.8764 88.0062 17.4573C88.1177 18.0281 88.1785 18.6124 88.1785 19.1966C88.1785 19.7809 88.1211 20.3652 88.0062 20.936C87.8948 21.5034 87.7259 22.0606 87.503 22.5976C87.2801 23.138 86.9998 23.6581 86.6722 24.1478C86.348 24.6341 85.9765 25.0901 85.5611 25.4987C85.149 25.9108 84.6965 26.2823 84.2169 26.6031C83.7339 26.9273 83.2071 27.2076 82.6599 27.4373C82.1297 27.6568 81.5691 27.8223 80.9882 27.9405C79.8568 28.1702 78.6409 28.1702 77.5095 27.9405C76.9354 27.8291 76.3714 27.6568 75.8344 27.4339C75.2974 27.211 74.7806 26.9307 74.2943 26.6031C73.8147 26.2823 73.3622 25.9108 72.9501 25.4987C72.5347 25.0833 72.1632 24.6308 71.839 24.1444C71.5148 23.6648 71.2345 23.1447 71.0116 22.601C70.7853 22.0539 70.6164 21.4898 70.505 20.9292C70.3935 20.3517 70.3361 19.764 70.3361 19.1933C70.3361 18.6225 70.3935 18.0213 70.5083 17.4506C70.6232 16.873 70.7954 16.309 71.0183 15.772L71.0251 15.7754Z" fill="black"></path><path d="M76.2397 4.23528C75.2771 4.43117 74.3315 4.71824 73.4263 5.09312C72.5043 5.47476 71.6127 5.95434 70.7751 6.5116C70.2213 6.8831 70.0727 7.63624 70.4442 8.19012C70.8191 8.744 71.5722 8.89261 72.1227 8.5211C72.8252 8.04828 73.5749 7.64637 74.3517 7.32553C75.115 7.00806 75.912 6.76489 76.7159 6.60278C78.3741 6.26843 80.1101 6.26843 81.7616 6.59603C82.5924 6.76152 83.4029 7.00468 84.1696 7.32215C84.9464 7.64637 85.6894 8.03814 86.3784 8.50084C87.0842 8.97028 87.7428 9.51066 88.3372 10.1118C88.9282 10.6995 89.4619 11.3513 89.9313 12.0436C90.4008 12.7461 90.8027 13.4925 91.1269 14.2659C91.4477 15.0427 91.6943 15.8566 91.8598 16.6841C92.0219 17.5082 92.1029 18.3491 92.1029 19.1901C92.1029 20.031 92.0185 20.872 91.8598 21.696C91.701 22.5032 91.4579 23.3104 91.137 24.0872C90.806 24.8775 90.4075 25.6272 89.9414 26.3196C89.4787 27.0153 88.9417 27.6705 88.344 28.2683C87.7597 28.8526 87.1079 29.3862 86.4121 29.859C85.7029 30.3318 84.9464 30.7371 84.1662 31.0613C83.4029 31.3788 82.5958 31.622 81.7649 31.7841C80.1168 32.1117 78.3842 32.1083 76.7496 31.7841C75.9357 31.622 75.1184 31.3754 74.3348 31.0512C73.5682 30.7304 72.8218 30.3285 72.1227 29.859C71.4303 29.3963 70.7785 28.8593 70.1875 28.2683C69.5931 27.6739 69.0561 27.0187 68.5866 26.3162C68.1172 25.6205 67.7153 24.8707 67.3944 24.0905C67.0702 23.3104 66.8271 22.4998 66.6649 21.6791C66.5028 20.8551 66.4218 20.0141 66.4218 19.1867C66.4218 18.518 65.8814 17.9776 65.2127 17.9776C64.544 17.9776 64.0036 18.518 64.0036 19.1867C64.0036 20.1695 64.0982 21.1624 64.2907 22.1418C64.4832 23.1213 64.7736 24.0872 65.1587 25.0126C65.5403 25.9447 66.0199 26.8397 66.5805 27.6671C67.131 28.4946 67.7693 29.2714 68.4786 29.9772C69.181 30.6797 69.9545 31.318 70.7785 31.8685C71.6093 32.4224 72.4908 32.8986 73.4095 33.2836C74.345 33.6686 75.3143 33.9625 76.2802 34.155C77.2562 34.3475 78.2627 34.4454 79.2657 34.4454C80.2688 34.4454 81.2651 34.3475 82.2378 34.155C83.2206 33.9625 84.1831 33.672 85.095 33.2937C86.0204 32.9087 86.9154 32.4291 87.7597 31.8651C88.5905 31.3045 89.3605 30.6696 90.0529 29.9772C90.7655 29.268 91.4038 28.4878 91.9509 27.6638C92.5048 26.8464 92.981 25.9548 93.3728 25.0092C93.7544 24.0804 94.0449 23.1213 94.234 22.1587C94.4265 21.1827 94.5245 20.183 94.5245 19.1867C94.5245 18.1904 94.4265 17.1907 94.234 16.2113C94.0381 15.2251 93.7443 14.2592 93.3593 13.3304C92.9776 12.4118 92.4981 11.5235 91.9408 10.6893C91.3869 9.8619 90.7486 9.08849 90.0495 8.39614C89.3437 7.6869 88.5601 7.04183 87.7192 6.48458C86.9019 5.93745 86.017 5.46463 85.095 5.08299C84.1831 4.70473 83.2172 4.41428 82.231 4.21839C80.2755 3.83 78.212 3.83338 76.2397 4.22515V4.23528Z" fill="black"></path><path d="M170.896 7.52124H164.695C164.594 7.52124 164.506 7.62256 164.506 7.72388V8.27101C164.506 8.37232 164.594 8.46351 164.695 8.46351H167.238V16.228C167.238 16.3293 167.316 16.4171 167.417 16.4171H168.167C168.268 16.4171 168.359 16.3293 168.359 16.228V8.46351H170.899C171 8.46351 171.078 8.3757 171.078 8.27101V7.72388C171.078 7.62256 171 7.52124 170.899 7.52124H170.896Z" fill="black"></path><path d="M173.5 16.4172H178.481C178.583 16.4172 178.67 16.3294 178.67 16.2281V15.6674C178.67 15.5661 178.583 15.4783 178.481 15.4783H174.425V12.4421H177.208C177.309 12.4421 177.397 12.3644 177.397 12.2631V11.6788C177.397 11.5775 177.306 11.5032 177.208 11.5032H174.425V8.46697H178.468C178.569 8.46697 178.647 8.37916 178.647 8.27446V7.71721C178.647 7.61589 178.572 7.52808 178.468 7.52808H173.5C173.398 7.52808 173.307 7.61589 173.307 7.71721V16.2314C173.307 16.3328 173.395 16.4206 173.5 16.4206V16.4172Z" fill="black"></path><path d="M188.661 14.8163C188.711 14.7521 188.725 14.6373 188.634 14.563L188.201 14.1442C188.124 14.08 187.999 14.0699 187.921 14.1678C187.401 14.9311 186.394 15.5795 185.239 15.5795C183.385 15.5795 181.808 13.8774 181.808 11.9692C181.808 10.061 183.358 8.36219 185.239 8.36219C186.371 8.36219 187.374 9.01064 187.843 9.66922C187.907 9.75703 188.046 9.75703 188.11 9.68273L188.569 9.22341C188.62 9.18626 188.657 9.08494 188.583 8.98362C187.796 7.96705 186.536 7.41992 185.239 7.41992C182.71 7.41992 180.69 9.49022 180.69 11.9692C180.69 14.4481 182.723 16.5184 185.239 16.5184C186.587 16.5184 187.82 15.9071 188.657 14.8163H188.661Z" fill="black"></path><path d="M192.305 16.228V12.442H197.046V16.228C197.046 16.3293 197.124 16.4171 197.239 16.4171H197.989C198.09 16.4171 198.168 16.3293 198.168 16.228V7.71379C198.168 7.61247 198.09 7.52466 197.989 7.52466H197.239C197.124 7.52466 197.046 7.61247 197.046 7.71379V11.4998H192.305V7.71379C192.305 7.61247 192.23 7.52466 192.129 7.52466H191.379C191.264 7.52466 191.187 7.61247 191.187 7.71379V16.228C191.187 16.3293 191.275 16.4171 191.379 16.4171H192.129C192.23 16.4171 192.305 16.3293 192.305 16.228Z" fill="black"></path><path d="M168.366 22.7666H165.05C164.935 22.7666 164.861 22.8544 164.861 22.9591V31.4835C164.861 31.5848 164.935 31.6625 165.05 31.6625H165.799C165.901 31.6625 165.978 31.5882 165.978 31.4835V28.3324H168.265C169.548 28.3189 170.693 27.3159 170.693 25.563C170.693 23.8102 169.639 22.7801 168.366 22.7666ZM167.91 27.3935H165.978V23.7089H167.883C169.281 23.7089 169.572 24.7626 169.572 25.563C169.572 26.3634 169.278 27.3935 167.907 27.3935H167.91Z" fill="black"></path><path d="M175.877 22.6685H175.546C175.469 22.6685 175.418 22.7056 175.381 22.7833L171.798 31.3988C171.733 31.5508 171.862 31.6656 171.963 31.6656H172.686C172.774 31.6656 172.828 31.615 172.851 31.5508L173.574 29.7946H177.87L178.593 31.5373C178.62 31.615 178.67 31.6656 178.758 31.6656H179.481C179.609 31.6656 179.711 31.5373 179.66 31.4123L176.026 22.7833C176.002 22.709 175.948 22.6685 175.874 22.6685H175.877ZM173.959 28.8557L175.712 24.6104L177.478 28.8557H173.959Z" fill="black"></path><path d="M187.134 27.9643C188.049 27.6232 188.748 26.6944 188.748 25.411C188.748 23.6548 187.543 22.7801 186.411 22.7666H182.585C182.47 22.7666 182.396 22.8544 182.396 22.9591V31.4835C182.396 31.5848 182.473 31.6625 182.585 31.6625H183.335C183.436 31.6625 183.513 31.5882 183.513 31.4835V28.1163H185.989L187.705 31.47C187.755 31.5713 187.87 31.6591 187.972 31.6591H188.708C188.809 31.6591 188.948 31.5578 188.873 31.3923L187.134 27.9609V27.9643ZM186.053 27.1774H183.513V23.7089H186.04C187.526 23.7089 187.63 24.8268 187.63 25.411C187.63 26.1844 187.337 27.1774 186.053 27.1774Z" fill="black"></path><path d="M194.044 27.2145L198.303 23.0706C198.404 22.9827 198.316 22.7666 198.151 22.7666H197.388C197.286 22.7666 197.158 22.8308 197.019 22.9591L193.017 26.8869V22.9591C193.017 22.8578 192.943 22.7666 192.842 22.7666H192.092C191.991 22.7666 191.899 22.8544 191.899 22.9591V31.4733C191.899 31.5747 191.987 31.6625 192.092 31.6625H192.842C192.943 31.6625 193.017 31.5747 193.017 31.4733V27.5455L197.019 31.4733C197.121 31.5747 197.286 31.6625 197.388 31.6625H198.151C198.34 31.6625 198.38 31.4598 198.289 31.3585L194.044 27.2145Z" fill="black"></path></g><defs><clipPath id="clip0_1_169"><rect width="198.343" height="38.39" fill="white"></rect></clipPath></defs></svg> 