<?xml version="1.0" standalone="no"?>
<!DOCTYPE svg PUBLIC "-//W3C//DTD SVG 20010904//EN"
 "http://www.w3.org/TR/2001/REC-SVG-20010904/DTD/svg10.dtd">
<svg version="1.0" xmlns="http://www.w3.org/2000/svg"
 width="6000.000000pt" height="3375.000000pt" viewBox="0 0 6000.000000 3375.000000"
 preserveAspectRatio="xMidYMid meet">

<g transform="translate(0.000000,3375.000000) scale(0.100000,-0.100000)"
fill="#000000" stroke="none">
<path d="M24380 23400 c-1622 -83 -3122 -858 -4134 -2135 -610 -770 -1012
-1707 -1150 -2677 -44 -309 -51 -422 -51 -828 1 -463 19 -661 96 -1060 183
-942 590 -1791 1225 -2555 125 -150 460 -489 614 -621 935 -802 2046 -1266
3255 -1359 1254 -96 2496 227 3540 920 521 346 965 757 1353 1254 111 142 331
472 433 650 462 809 726 1768 732 2656 2 218 2 220 -24 275 -38 78 -88 131
-161 170 -54 29 -75 35 -148 38 -69 3 -95 0 -142 -18 -77 -28 -159 -104 -194
-178 -26 -54 -28 -67 -35 -267 -20 -527 -95 -960 -246 -1420 -375 -1145 -1165
-2117 -2213 -2723 -613 -354 -1287 -571 -1981 -636 -928 -88 -1833 75 -2654
479 -491 242 -890 529 -1291 929 -222 223 -316 329 -468 531 -573 759 -904
1643 -977 2605 -15 198 -6 696 15 880 78 665 262 1254 563 1805 253 463 479
763 867 1151 625 624 1308 1019 2196 1268 455 127 1055 188 1550 157 229 -14
322 -25 520 -59 203 -35 296 -35 371 0 79 36 133 89 171 166 30 60 33 76 33
152 0 102 -13 141 -69 217 -54 73 -126 117 -226 138 -349 74 -958 116 -1370
95z"/>
<path d="M5155 22826 c-123 -54 -1557 -805 -1582 -828 -17 -17 -34 -41 -37
-53 -7 -27 65 -273 93 -318 25 -41 70 -67 115 -67 41 0 1592 542 1676 585 36
18 67 58 75 94 7 31 -133 482 -166 537 -34 56 -110 78 -174 50z"/>
<path d="M27502 22514 c-73 -19 -107 -39 -159 -90 -65 -65 -97 -141 -101 -239
-7 -145 47 -236 198 -338 552 -371 1075 -924 1440 -1522 78 -128 234 -429 314
-608 58 -127 102 -181 188 -228 59 -32 69 -34 158 -34 81 0 102 4 145 25 149
73 236 236 205 385 -24 115 -236 552 -395 815 -240 396 -503 729 -854 1081
-227 227 -351 336 -581 511 -323 245 -409 283 -558 242z"/>
<path d="M24410 22249 c-676 -35 -1387 -249 -1985 -597 -233 -135 -293 -179
-341 -249 -151 -221 -9 -525 258 -550 99 -9 152 9 294 98 164 103 297 176 433
238 586 268 1182 385 1790 351 375 -21 664 -76 1016 -195 661 -222 1228 -609
1675 -1143 508 -605 805 -1330 871 -2117 15 -177 6 -619 -16 -770 -40 -288
-95 -525 -172 -750 -190 -548 -508 -1057 -902 -1443 -551 -541 -1191 -885
-1918 -1031 -247 -50 -369 -62 -658 -68 -446 -9 -758 31 -1160 149 -981 287
-1828 996 -2291 1918 -252 503 -375 990 -403 1596 -8 173 -10 185 -38 245 -38
81 -91 134 -173 172 -55 27 -76 31 -145 31 -98 0 -169 -29 -245 -100 -105 -98
-122 -189 -101 -514 43 -635 192 -1193 466 -1739 325 -649 821 -1229 1405
-1643 639 -452 1335 -717 2115 -805 223 -25 744 -25 965 0 746 84 1394 323
2021 742 482 324 876 718 1212 1216 400 592 640 1241 733 1979 21 173 30 650
15 848 -90 1177 -629 2253 -1519 3033 -567 497 -1275 852 -2012 1008 -235 50
-441 76 -705 91 -207 11 -267 11 -485 -1z"/>
<path d="M4315 21272 c-16 -11 -36 -26 -42 -34 -7 -8 -652 -1551 -1433 -3428
-1234 -2966 -1420 -3420 -1420 -3463 0 -59 25 -99 80 -127 37 -19 59 -20 342
-19 332 0 359 4 393 54 11 17 148 342 305 723 l285 692 1695 0 1695 0 279
-672 c154 -370 290 -693 303 -718 40 -77 29 -75 385 -78 299 -3 320 -2 363 17
55 24 85 70 85 129 0 34 -277 699 -1421 3415 -781 1855 -1433 3400 -1449 3434
-41 89 -53 93 -252 93 -140 0 -167 -3 -193 -18z m899 -3202 l685 -1645 -689
-3 c-378 -1 -1001 -1 -1383 0 l-694 3 229 555 c522 1263 1108 2678 1128 2725
19 43 23 47 30 30 5 -11 317 -760 694 -1665z"/>
<path d="M13255 21280 c-785 -71 -1558 -415 -2144 -955 -623 -574 -997 -1293
-1117 -2145 -21 -153 -30 -614 -15 -780 39 -423 133 -790 297 -1155 249 -552
666 -1064 1166 -1428 483 -352 1043 -583 1598 -662 883 -125 2185 169 2915
657 143 95 266 202 284 245 8 21 11 341 9 1240 l-3 1212 -30 31 c-16 17 -45
35 -65 41 -23 7 -398 9 -1117 7 -1076 -3 -1082 -3 -1110 -24 -58 -43 -63 -66
-63 -319 0 -262 5 -282 76 -319 38 -21 56 -21 732 -24 l692 -3 0 -728 0 -728
-77 -56 c-312 -224 -747 -395 -1198 -471 -278 -47 -694 -61 -908 -30 -653 94
-1280 488 -1735 1091 -281 372 -482 831 -556 1268 -88 521 -16 1111 196 1605
99 232 256 493 414 690 96 120 310 332 434 430 305 242 651 415 1007 505 228
57 338 70 598 69 229 0 292 -6 492 -45 542 -104 1119 -410 1548 -820 118 -113
134 -123 183 -114 31 6 71 41 240 208 112 111 212 217 223 235 31 48 28 114
-7 160 -44 59 -251 261 -344 336 -166 134 -446 308 -630 393 -431 199 -812
309 -1255 363 -194 24 -572 34 -730 20z"/>
<path d="M43785 21271 c-17 -10 -38 -29 -47 -42 -8 -14 -244 -573 -523 -1244
-279 -671 -917 -2203 -1417 -3405 -692 -1661 -910 -2195 -911 -2226 -1 -57 29
-104 83 -132 44 -23 49 -23 355 -20 353 3 359 5 396 81 11 23 145 344 297 712
l278 670 1695 3 1695 2 293 -705 c185 -443 302 -712 317 -726 35 -33 86 -38
394 -38 257 -1 289 1 326 18 53 24 87 72 88 125 1 33 -139 373 -726 1766 -400
949 -1051 2492 -1446 3430 -667 1585 -720 1706 -751 1727 -32 22 -44 23 -200
23 -144 0 -170 -3 -196 -19z m894 -3185 c380 -913 689 -1661 687 -1663 -1 -2
-624 -2 -1383 -1 l-1380 3 53 125 c28 69 332 802 674 1630 342 828 628 1520
636 1539 8 19 16 32 18 30 2 -2 315 -751 695 -1663z"/>
<path d="M55595 21224 c-403 -61 -732 -266 -949 -592 -100 -149 -160 -295
-202 -487 -23 -107 -23 -345 0 -473 100 -554 540 -992 1091 -1087 131 -22 343
-20 466 5 277 57 506 189 698 405 47 53 71 87 71 104 0 17 -20 43 -67 88 -99
94 -108 99 -136 80 -13 -8 -46 -43 -73 -77 -67 -84 -185 -177 -302 -238 -323
-169 -704 -138 -997 81 -260 194 -422 494 -441 816 -27 433 247 870 646 1034
125 51 225 71 360 70 265 -1 484 -96 688 -300 85 -85 108 -103 125 -97 30 9
166 144 174 172 16 65 -217 277 -412 375 -163 81 -326 118 -545 122 -91 2
-178 1 -195 -1z"/>
<path d="M33182 21193 c-18 -9 -43 -30 -55 -47 l-22 -31 -3 -3400 c-2 -3222
-1 -3402 15 -3434 10 -19 31 -44 46 -55 27 -20 43 -21 365 -24 377 -3 383 -2
429 67 l23 34 0 1343 0 1344 978 0 977 0 679 -1327 c373 -731 691 -1344 706
-1363 15 -19 49 -48 75 -65 l48 -30 336 0 c374 0 380 1 422 68 45 72 70 16
-676 1485 -378 744 -686 1354 -684 1356 2 2 53 26 112 54 216 102 358 201 525
366 276 270 458 594 556 991 90 362 91 819 5 1195 -50 217 -161 482 -275 657
-249 383 -631 660 -1069 774 -232 60 -196 59 -1913 59 -1423 0 -1570 -2 -1600
-17z m3113 -751 c146 -28 318 -89 418 -149 100 -60 239 -193 301 -290 135
-209 194 -442 203 -803 6 -220 -4 -346 -39 -510 -58 -272 -162 -476 -322 -635
-153 -151 -305 -231 -556 -291 -69 -17 -162 -18 -1197 -21 l-1123 -4 0 1366 0
1366 1103 -4 c1073 -3 1105 -4 1212 -25z"/>
<path d="M49696 21184 c-20 -20 -23 -223 -4 -242 9 -9 112 -12 400 -12 l388 0
0 -1154 0 -1155 22 -15 c17 -12 50 -16 141 -16 112 0 119 1 142 25 l25 24 0
1146 0 1145 383 0 c285 0 386 3 395 12 15 15 16 211 2 239 -10 19 -32 19 -945
19 -835 0 -935 -2 -949 -16z"/>
<path d="M52276 21184 c-14 -14 -16 -145 -16 -1289 l0 -1275 24 -15 c20 -14
111 -15 770 -13 727 3 748 4 762 22 10 14 14 49 14 121 0 86 -3 104 -18 118
-17 15 -74 17 -620 17 l-602 0 0 445 0 445 415 0 c497 0 455 -13 455 139 0
152 37 141 -461 141 l-409 0 0 440 0 440 588 0 c453 0 593 3 612 13 24 12 25
16 28 126 2 75 -1 118 -9 127 -10 12 -133 14 -765 14 -671 0 -754 -2 -768 -16z"/>
<path d="M57516 21178 c-14 -20 -16 -158 -16 -1281 l0 -1258 25 -24 c23 -24
30 -25 145 -25 107 0 122 2 140 20 20 20 20 33 20 585 l0 565 695 0 695 0 0
-562 c0 -310 4 -568 8 -574 17 -26 56 -34 166 -34 103 0 118 2 136 20 20 20
20 33 20 1289 0 1141 -2 1271 -16 1285 -12 13 -41 16 -149 16 -127 0 -135 -1
-149 -22 -14 -20 -16 -92 -16 -580 l0 -558 -695 0 -695 0 0 564 c0 500 -2 566
-16 580 -12 13 -41 16 -149 16 -127 0 -135 -1 -149 -22z"/>
<path d="M26220 20594 c-115 -30 -213 -127 -246 -242 -32 -110 -2 -253 69
-331 12 -13 92 -75 177 -139 568 -425 926 -1022 1037 -1732 25 -163 25 -577 0
-740 -95 -606 -381 -1149 -811 -1542 -423 -386 -913 -614 -1467 -683 -140 -17
-457 -20 -594 -5 -461 50 -907 226 -1279 504 -344 257 -601 565 -786 941 -253
517 -329 1070 -225 1640 118 642 495 1237 1029 1625 135 98 173 135 208 209
29 58 33 75 33 151 0 76 -3 92 -33 152 -63 129 -174 198 -317 198 -96 0 -148
-20 -261 -100 -752 -533 -1246 -1339 -1378 -2250 -108 -740 46 -1516 428
-2158 261 -438 610 -807 1019 -1075 442 -291 891 -460 1417 -534 180 -25 674
-25 849 0 445 64 843 195 1196 395 462 261 854 623 1139 1052 301 453 466 890
542 1440 25 178 25 644 1 820 -78 551 -250 1010 -544 1448 -127 189 -230 311
-422 502 -244 242 -466 412 -588 450 -76 23 -117 24 -193 4z"/>
<path d="M52876 16738 c-24 -36 -1066 -2547 -1066 -2568 0 -38 37 -50 152 -50
58 0 117 4 131 9 19 8 42 55 132 275 l109 266 632 0 631 0 108 -261 c60 -143
115 -267 122 -275 11 -10 44 -14 131 -14 132 0 162 11 162 58 -1 15 -243 601
-539 1302 l-537 1275 -77 3 c-70 3 -77 1 -91 -20z m348 -1173 l254 -610 -253
-3 c-140 -1 -371 -1 -514 0 l-259 3 159 385 c87 212 203 490 256 619 53 129
98 230 100 225 2 -5 118 -283 257 -619z"/>
<path d="M49796 16715 c-15 -15 -16 -130 -16 -1290 l0 -1274 22 -15 c17 -12
50 -16 145 -16 110 0 125 2 143 20 19 19 20 33 20 490 l0 470 364 0 c379 0
443 5 547 46 157 62 298 193 373 345 74 150 89 223 89 424 0 151 -3 181 -25
266 -71 263 -218 432 -458 523 -53 20 -75 21 -621 24 -511 3 -568 1 -583 -13z
m1027 -280 c210 -55 321 -215 334 -481 12 -248 -71 -440 -225 -518 -102 -52
-139 -56 -494 -56 l-328 0 0 535 0 535 328 0 c259 0 340 -3 385 -15z"/>
<path d="M54935 16707 c-14 -21 -15 -166 -13 -1291 3 -1242 3 -1268 22 -1282
29 -21 253 -20 284 2 l22 15 0 505 0 504 366 -2 367 -3 252 -495 c206 -403
259 -499 286 -517 28 -21 43 -23 138 -22 129 1 153 7 165 40 8 22 -26 94 -248
531 -141 278 -256 508 -256 511 0 3 30 22 68 41 137 73 236 174 307 316 118
234 122 541 10 777 -87 186 -234 311 -429 367 l-88 26 -619 0 -619 0 -15 -23z
m1214 -268 c146 -33 239 -125 287 -284 26 -85 26 -305 0 -390 -51 -168 -144
-265 -294 -307 -60 -16 -109 -18 -479 -18 l-413 0 0 505 0 505 428 0 c251 0
445 -5 471 -11z"/>
<path d="M57726 16708 c-14 -20 -16 -158 -16 -1284 l0 -1263 26 -20 c24 -19
40 -21 145 -21 106 0 121 2 139 20 20 20 20 33 20 606 l0 585 595 -583 c349
-343 611 -592 636 -605 37 -20 57 -23 163 -23 133 0 166 11 166 54 0 18 -102
123 -407 422 -225 219 -508 496 -629 615 l-222 218 629 611 c467 454 629 617
629 634 0 48 -25 56 -172 56 -131 0 -136 -1 -175 -27 -22 -16 -303 -286 -624
-600 l-584 -573 -3 582 c-2 524 -4 583 -19 600 -14 16 -33 18 -149 18 -126 0
-134 -1 -148 -22z"/>
</g>
</svg>
