<svg xmlns="http://www.w3.org/2000/svg" xmlns:xlink="http://www.w3.org/1999/xlink" width="1920" zoomAndPan="magnify" viewBox="0 0 1440 809.999993" height="1080" preserveAspectRatio="xMidYMid meet" version="1.0"><defs><clipPath id="e4854624da"><path d="M 33.929688 299 L 184 299 L 184 470 L 33.929688 470 Z M 33.929688 299 " clip-rule="nonzero"/></clipPath><clipPath id="950db5219d"><path d="M 456 248.175781 L 728 248.175781 L 728 518.382812 L 456 518.382812 Z M 456 248.175781 " clip-rule="nonzero"/></clipPath><clipPath id="aef26b5307"><path d="M 1385 408 L 1430.460938 408 L 1430.460938 472 L 1385 472 Z M 1385 408 " clip-rule="nonzero"/></clipPath></defs><path fill="#000000" d="M 86.625 290.179688 C 87.835938 292.582031 89.261719 293.054688 91.425781 292.34375 L 129.402344 278.886719 C 131.566406 277.9375 132.519531 276.488281 131.566406 274.085938 L 128.429688 264.460938 C 127.714844 262.296875 125.789062 261.109375 123.386719 262.296875 L 87.574219 280.789062 C 85.171875 282.003906 84.222656 283.191406 85.171875 285.355469 L 86.625 290.15625 Z M 86.625 290.179688 " fill-opacity="1" fill-rule="nonzero"/><g clip-path="url(#e4854624da)"><path fill="#000000" d="M 114.257812 301.210938 C 113.78125 299.761719 112.828125 299.046875 111.378906 299.046875 L 105.125 299.046875 C 103.675781 299.046875 102.722656 299.761719 102.007812 301.210938 L 34.238281 464.089844 C 33.046875 466.964844 35.449219 469.128906 37.351562 469.128906 L 51.074219 469.128906 C 52.761719 469.128906 53.710938 468.179688 54.1875 466.964844 L 67.886719 433.828125 L 149.117188 433.828125 L 162.8125 466.730469 C 163.289062 468.179688 164.265625 469.128906 165.929688 469.128906 L 179.625 469.128906 C 182.027344 469.128906 183.953125 466.730469 183.003906 464.328125 Z M 75.089844 416.023438 L 108.261719 335.796875 L 141.671875 416.023438 Z M 75.089844 416.023438 " fill-opacity="1" fill-rule="nonzero"/></g><path fill="#000000" d="M 386.722656 387.925781 L 336.265625 387.925781 C 334.097656 387.925781 332.648438 389.378906 332.648438 391.277344 L 332.648438 400.882812 C 332.648438 402.808594 334.097656 404.257812 336.265625 404.257812 L 368.699219 404.257812 L 368.699219 439.320312 C 357.878906 447.734375 342.019531 453.25 323.042969 453.25 C 291.082031 453.25 260.097656 420.828125 260.335938 385.027344 C 260.574219 346.351562 291.320312 316.804688 324.492188 316.804688 C 351.410156 316.804688 370.886719 334.347656 375.429688 339.386719 C 376.640625 340.835938 378.542969 340.835938 379.757812 339.625 L 388.648438 330.734375 C 390.101562 329.285156 390.339844 327.359375 389.125 325.933594 C 375.429688 309.601562 349.722656 299.023438 324.46875 299.023438 C 282.902344 299.023438 239.171875 333.136719 239.171875 385.027344 C 239.171875 436.921875 283.378906 471.007812 323.042969 471.007812 C 348.273438 471.007812 377.117188 461.402344 389.125 449.636719 C 389.601562 449.160156 390.078125 448.1875 390.078125 447.238281 L 390.078125 391.253906 C 390.078125 389.332031 388.625 387.902344 386.722656 387.902344 Z M 386.722656 387.925781 " fill-opacity="1" fill-rule="nonzero"/><path fill="#000000" d="M 884.03125 399.21875 C 901.34375 392.726562 914.539062 375.207031 914.539062 350.9375 C 914.539062 317.777344 891.710938 301.210938 870.335938 300.972656 L 797.996094 300.972656 C 795.828125 300.972656 794.40625 302.660156 794.40625 304.585938 L 794.40625 465.753906 C 794.40625 467.679688 795.828125 469.105469 797.996094 469.105469 L 812.171875 469.105469 C 814.09375 469.105469 815.542969 467.65625 815.542969 465.753906 L 815.542969 402.09375 L 862.386719 402.09375 L 894.824219 465.515625 C 895.777344 467.441406 897.945312 469.105469 899.867188 469.105469 L 913.828125 469.105469 C 915.75 469.105469 918.371094 467.179688 916.941406 464.066406 L 884.03125 399.195312 Z M 863.605469 384.335938 L 815.542969 384.335938 L 815.542969 318.753906 L 863.34375 318.753906 C 891.472656 318.753906 893.375 339.886719 893.375 350.9375 C 893.375 365.605469 887.832031 384.335938 863.578125 384.335938 Z M 863.605469 384.335938 " fill-opacity="1" fill-rule="nonzero"/><path fill="#000000" d="M 1061.570312 301.210938 C 1061.089844 299.761719 1060.121094 299.046875 1058.667969 299.046875 L 1052.4375 299.046875 C 1050.988281 299.046875 1050.035156 299.761719 1049.296875 301.210938 L 981.527344 464.066406 C 980.339844 466.941406 982.738281 469.105469 984.667969 469.105469 L 998.363281 469.105469 C 1000.054688 469.105469 1001.003906 468.15625 1001.476562 466.941406 L 1015.199219 433.804688 L 1096.410156 433.804688 L 1110.105469 466.707031 C 1110.605469 468.15625 1111.554688 469.105469 1113.242188 469.105469 L 1126.9375 469.105469 C 1129.339844 469.105469 1131.269531 466.707031 1130.320312 464.304688 L 1061.589844 301.210938 Z M 1022.402344 416.023438 L 1055.578125 335.796875 L 1088.988281 416.023438 Z M 1022.402344 416.023438 " fill-opacity="1" fill-rule="nonzero"/><path fill="#000000" d="M 657.480469 284.953125 C 663.925781 289.230469 669.988281 294.222656 675.527344 299.761719 C 680.925781 305.15625 685.875 311.148438 690.152344 317.542969 C 694.503906 324.03125 698.191406 330.902344 701.140625 337.984375 C 702.496094 341.265625 705.679688 343.238281 709.011719 343.238281 C 710.105469 343.238281 711.222656 343.023438 712.269531 342.574219 C 716.621094 340.765625 718.6875 335.773438 716.882812 331.449219 C 713.503906 323.34375 709.296875 315.472656 704.304688 308.058594 C 699.378906 300.734375 693.746094 293.890625 687.5625 287.734375 C 681.234375 281.410156 674.292969 275.703125 666.898438 270.785156 C 662.972656 268.167969 657.695312 269.238281 655.101562 273.160156 C 652.488281 277.082031 653.554688 282.359375 657.480469 284.953125 Z M 657.480469 284.953125 " fill-opacity="1" fill-rule="nonzero"/><g clip-path="url(#950db5219d)"><path fill="#000000" d="M 718.664062 374.757812 C 713.957031 374.757812 710.152344 378.5625 710.152344 383.269531 C 710.152344 391.066406 709.390625 398.816406 707.894531 406.300781 C 706.394531 413.863281 704.160156 421.277344 701.234375 428.339844 C 698.285156 435.492188 694.601562 442.386719 690.25 448.851562 C 685.992188 455.246094 681.046875 461.261719 675.527344 466.777344 C 670.082031 472.21875 664.113281 477.140625 657.742188 481.394531 C 651.25 485.746094 644.304688 489.453125 637.148438 492.425781 C 630.0625 495.347656 622.621094 497.605469 615.035156 499.105469 C 600.078125 502.078125 584 502.078125 568.902344 499.105469 C 561.339844 497.605469 553.871094 495.347656 546.667969 492.355469 C 539.628906 489.429688 532.777344 485.746094 526.3125 481.417969 C 519.960938 477.140625 513.96875 472.21875 508.523438 466.753906 C 503.054688 461.308594 498.132812 455.292969 493.828125 448.875 C 489.523438 442.480469 485.8125 435.566406 482.84375 428.386719 C 479.871094 421.160156 477.609375 413.671875 476.136719 406.160156 C 474.660156 398.601562 473.902344 390.898438 473.902344 383.269531 C 473.902344 375.636719 474.660156 367.746094 476.160156 360.1875 C 477.65625 352.605469 479.917969 345.140625 482.914062 338.007812 C 485.863281 330.875 489.59375 323.933594 493.972656 317.421875 C 498.25 311.074219 503.148438 305.15625 508.523438 299.808594 C 513.945312 294.363281 519.960938 289.445312 526.359375 285.140625 C 532.804688 280.816406 539.699219 277.128906 546.855469 274.160156 C 553.871094 271.257812 561.21875 269.023438 568.664062 267.527344 C 583.761719 264.484375 599.765625 264.4375 615.058594 267.457031 C 619.695312 268.40625 624.164062 265.363281 625.070312 260.75 C 625.972656 256.140625 622.976562 251.648438 618.363281 250.742188 C 600.910156 247.320312 582.574219 247.34375 565.332031 250.839844 C 556.796875 252.550781 548.402344 255.09375 540.339844 258.421875 C 532.136719 261.820312 524.242188 266.050781 516.871094 270.996094 C 509.546875 275.917969 502.675781 281.550781 496.46875 287.78125 C 490.332031 293.886719 484.746094 300.664062 479.84375 307.9375 C 474.828125 315.402344 470.570312 323.339844 467.171875 331.519531 C 463.769531 339.695312 461.179688 348.230469 459.441406 356.929688 C 457.730469 365.582031 456.875 374.449219 456.875 383.339844 C 456.875 392.230469 457.730469 400.859375 459.417969 409.488281 C 461.105469 418.117188 463.699219 426.699219 467.101562 434.945312 C 470.523438 443.195312 474.757812 451.109375 479.679688 458.433594 C 484.578125 465.753906 490.238281 472.648438 496.46875 478.851562 C 502.699219 485.078125 509.546875 490.714844 516.847656 495.632812 C 524.265625 500.578125 532.089844 504.785156 540.128906 508.136719 C 548.355469 511.5625 556.941406 514.175781 565.59375 515.863281 C 574.226562 517.574219 583.121094 518.429688 592.039062 518.429688 C 600.957031 518.429688 609.800781 517.574219 618.363281 515.863281 C 627.042969 514.152344 635.554688 511.585938 643.6875 508.234375 C 651.890625 504.832031 659.835938 500.578125 667.253906 495.609375 C 674.53125 490.738281 681.402344 485.078125 687.609375 478.875 C 693.910156 472.601562 699.59375 465.683594 704.445312 458.382812 C 709.390625 450.992188 713.625 443.101562 716.976562 434.921875 C 720.332031 426.839844 722.921875 418.355469 724.632812 409.675781 C 726.324219 401.097656 727.203125 392.230469 727.203125 383.339844 C 727.203125 378.632812 723.398438 374.828125 718.6875 374.828125 Z M 718.664062 374.757812 " fill-opacity="1" fill-rule="nonzero"/></g><path fill="#000000" d="M 534.015625 359.210938 C 535.609375 355.382812 537.582031 351.699219 539.890625 348.253906 C 542.125 344.925781 544.742188 341.761719 547.59375 338.886719 C 550.472656 336.035156 553.65625 333.394531 557.105469 331.089844 C 561.003906 328.476562 562.050781 323.175781 559.4375 319.277344 C 556.820312 315.378906 551.542969 314.332031 547.617188 316.945312 C 543.265625 319.871094 539.222656 323.199219 535.585938 326.835938 C 531.921875 330.472656 528.640625 334.488281 525.789062 338.722656 C 522.839844 343.09375 520.320312 347.800781 518.296875 352.652344 C 516.300781 357.453125 514.753906 362.492188 513.730469 367.671875 C 512.710938 372.785156 512.210938 378.039062 512.210938 383.242188 C 512.210938 388.449219 512.710938 393.539062 513.683594 398.695312 C 514.683594 403.757812 516.207031 408.820312 518.226562 413.71875 C 520.246094 418.59375 522.746094 423.273438 525.644531 427.578125 C 528.523438 431.878906 531.851562 435.945312 535.5625 439.652344 C 539.246094 443.359375 543.289062 446.691406 547.59375 449.542969 C 551.921875 452.441406 556.535156 454.914062 561.363281 456.957031 C 566.214844 458.957031 571.277344 460.5 576.367188 461.5 C 581.433594 462.519531 586.710938 463.042969 591.992188 463.042969 C 597.269531 463.042969 602.503906 462.519531 607.519531 461.5 C 612.679688 460.476562 617.71875 458.980469 622.5 457.003906 C 627.398438 454.960938 632.082031 452.441406 636.410156 449.542969 C 640.714844 446.664062 644.757812 443.335938 648.421875 439.675781 C 652.105469 436.015625 655.457031 431.925781 658.359375 427.554688 C 661.285156 423.179688 663.78125 418.519531 665.78125 413.695312 C 667.777344 408.894531 669.273438 403.878906 670.273438 398.789062 C 671.296875 393.703125 671.796875 388.472656 671.796875 383.242188 C 671.796875 378.015625 671.296875 372.785156 670.273438 367.699219 C 669.25 362.515625 667.707031 357.453125 665.707031 352.625 C 663.710938 347.824219 661.214844 343.191406 658.289062 338.816406 C 655.339844 334.464844 652.011719 330.402344 648.421875 326.835938 C 644.757812 323.125 640.644531 319.773438 636.222656 316.828125 C 632.296875 314.210938 627.019531 315.28125 624.402344 319.203125 C 621.808594 323.125 622.855469 328.402344 626.78125 331.019531 C 630.253906 333.324219 633.488281 335.964844 636.363281 338.886719 C 639.21875 341.714844 641.832031 344.925781 644.164062 348.347656 C 646.445312 351.769531 648.421875 355.429688 650.011719 359.210938 C 651.582031 362.992188 652.773438 366.960938 653.582031 371.050781 C 654.367188 375.066406 654.792969 379.179688 654.792969 383.292969 C 654.792969 387.402344 654.390625 391.515625 653.582031 395.535156 C 652.796875 399.527344 651.605469 403.449219 650.039062 407.230469 C 648.46875 411.03125 646.496094 414.691406 644.1875 418.140625 C 641.90625 421.5625 639.289062 424.773438 636.363281 427.648438 C 633.460938 430.550781 630.277344 433.164062 626.898438 435.421875 C 623.5 437.703125 619.789062 439.675781 615.9375 441.292969 C 612.203125 442.839844 608.257812 444.003906 604.167969 444.835938 C 596.199219 446.453125 587.640625 446.453125 579.671875 444.835938 C 575.628906 444.050781 571.660156 442.839844 567.878906 441.269531 C 564.097656 439.699219 560.457031 437.726562 557.035156 435.421875 C 553.65625 433.164062 550.472656 430.550781 547.570312 427.648438 C 544.644531 424.722656 542.03125 421.539062 539.746094 418.117188 C 537.464844 414.742188 535.492188 411.078125 533.921875 407.253906 C 532.328125 403.402344 531.136719 399.433594 530.355469 395.484375 C 529.570312 391.421875 529.164062 387.285156 529.164062 383.269531 C 529.164062 379.25 529.570312 375.019531 530.378906 371.003906 C 531.1875 366.9375 532.398438 362.96875 533.96875 359.1875 Z M 534.015625 359.210938 " fill-opacity="1" fill-rule="nonzero"/><path fill="#000000" d="M 570.730469 277.988281 C 563.953125 279.367188 557.296875 281.386719 550.921875 284.023438 C 544.429688 286.710938 538.152344 290.085938 532.257812 294.007812 C 528.355469 296.625 527.308594 301.925781 529.925781 305.824219 C 532.566406 309.722656 537.867188 310.765625 541.746094 308.152344 C 546.691406 304.824219 551.96875 301.996094 557.4375 299.738281 C 562.8125 297.503906 568.425781 295.792969 574.085938 294.648438 C 585.761719 292.296875 597.984375 292.296875 609.613281 294.601562 C 615.460938 295.765625 621.167969 297.480469 626.566406 299.714844 C 632.035156 301.996094 637.269531 304.753906 642.117188 308.007812 C 647.089844 311.3125 651.726562 315.117188 655.910156 319.347656 C 660.070312 323.484375 663.828125 328.074219 667.136719 332.945312 C 670.441406 337.890625 673.269531 343.144531 675.554688 348.585938 C 677.8125 354.054688 679.546875 359.78125 680.714844 365.605469 C 681.855469 371.40625 682.425781 377.324219 682.425781 383.246094 C 682.425781 389.164062 681.832031 395.082031 680.714844 400.882812 C 679.59375 406.566406 677.882812 412.246094 675.625 417.714844 C 673.292969 423.277344 670.488281 428.554688 667.207031 433.425781 C 663.949219 438.324219 660.167969 442.933594 655.957031 447.140625 C 651.84375 451.253906 647.253906 455.011719 642.355469 458.339844 C 637.363281 461.664062 632.035156 464.519531 626.542969 466.800781 C 621.167969 469.035156 615.484375 470.746094 609.636719 471.886719 C 598.03125 474.195312 585.832031 474.167969 574.324219 471.886719 C 568.589844 470.746094 562.835938 469.011719 557.320312 466.730469 C 551.921875 464.472656 546.667969 461.644531 541.746094 458.339844 C 536.871094 455.082031 532.28125 451.300781 528.117188 447.140625 C 523.933594 442.957031 520.152344 438.347656 516.847656 433.402344 C 513.542969 428.503906 510.710938 423.226562 508.453125 417.738281 C 506.167969 412.246094 504.457031 406.539062 503.316406 400.765625 C 502.175781 394.964844 501.605469 389.046875 501.605469 383.222656 C 501.605469 378.515625 497.800781 374.710938 493.089844 374.710938 C 488.382812 374.710938 484.578125 378.515625 484.578125 383.222656 C 484.578125 390.140625 485.242188 397.128906 486.597656 404.019531 C 487.953125 410.914062 490 417.714844 492.710938 424.226562 C 495.398438 430.789062 498.773438 437.085938 502.722656 442.910156 C 506.597656 448.734375 511.09375 454.203125 516.085938 459.171875 C 521.03125 464.113281 526.476562 468.605469 532.28125 472.480469 C 538.128906 476.378906 544.335938 479.730469 550.804688 482.441406 C 557.390625 485.152344 564.214844 487.21875 571.015625 488.574219 C 577.890625 489.929688 584.976562 490.621094 592.039062 490.621094 C 599.101562 490.621094 606.117188 489.929688 612.964844 488.574219 C 619.886719 487.21875 626.660156 485.175781 633.082031 482.511719 C 639.597656 479.804688 645.898438 476.425781 651.84375 472.457031 C 657.695312 468.511719 663.117188 464.042969 667.992188 459.171875 C 673.007812 454.179688 677.503906 448.6875 681.355469 442.886719 C 685.253906 437.132812 688.609375 430.859375 691.367188 424.203125 C 694.054688 417.664062 696.097656 410.914062 697.429688 404.140625 C 698.785156 397.269531 699.476562 390.234375 699.476562 383.222656 C 699.476562 376.210938 698.785156 369.171875 697.429688 362.28125 C 696.050781 355.339844 693.980469 348.539062 691.269531 342.003906 C 688.582031 335.535156 685.207031 329.285156 681.285156 323.414062 C 677.382812 317.589844 672.890625 312.144531 667.96875 307.273438 C 662.996094 302.28125 657.480469 297.742188 651.558594 293.816406 C 645.804688 289.96875 639.574219 286.640625 633.082031 283.953125 C 626.660156 281.289062 619.859375 279.246094 612.917969 277.867188 C 599.148438 275.132812 584.621094 275.15625 570.730469 277.914062 Z M 570.730469 277.988281 " fill-opacity="1" fill-rule="nonzero"/><path fill="#000000" d="M 1237.207031 301.113281 L 1193.546875 301.113281 C 1192.835938 301.113281 1192.214844 301.828125 1192.214844 302.539062 L 1192.214844 306.390625 C 1192.214844 307.105469 1192.835938 307.746094 1193.546875 307.746094 L 1211.453125 307.746094 L 1211.453125 362.398438 C 1211.453125 363.109375 1212 363.726562 1212.710938 363.726562 L 1217.992188 363.726562 C 1218.703125 363.726562 1219.34375 363.109375 1219.34375 362.398438 L 1219.34375 307.746094 L 1237.230469 307.746094 C 1237.941406 307.746094 1238.488281 307.128906 1238.488281 306.390625 L 1238.488281 302.539062 C 1238.488281 301.828125 1237.941406 301.113281 1237.230469 301.113281 Z M 1237.207031 301.113281 " fill-opacity="1" fill-rule="nonzero"/><path fill="#000000" d="M 1255.542969 363.730469 L 1290.613281 363.730469 C 1291.332031 363.730469 1291.945312 363.109375 1291.945312 362.398438 L 1291.945312 358.449219 C 1291.945312 357.738281 1291.332031 357.121094 1290.613281 357.121094 L 1262.054688 357.121094 L 1262.054688 335.75 L 1281.652344 335.75 C 1282.363281 335.75 1282.980469 335.203125 1282.980469 334.488281 L 1282.980469 330.378906 C 1282.980469 329.664062 1282.339844 329.140625 1281.652344 329.140625 L 1262.054688 329.140625 L 1262.054688 307.769531 L 1290.523438 307.769531 C 1291.234375 307.769531 1291.78125 307.152344 1291.78125 306.417969 L 1291.78125 302.492188 C 1291.78125 301.78125 1291.253906 301.164062 1290.523438 301.164062 L 1255.542969 301.164062 C 1254.824219 301.164062 1254.183594 301.78125 1254.183594 302.492188 L 1254.183594 362.421875 C 1254.183594 363.132812 1254.804688 363.753906 1255.542969 363.753906 Z M 1255.542969 363.730469 " fill-opacity="1" fill-rule="nonzero"/><path fill="#000000" d="M 1362.292969 352.460938 C 1362.644531 352.007812 1362.742188 351.199219 1362.101562 350.679688 L 1359.050781 347.730469 C 1358.511719 347.277344 1357.628906 347.207031 1357.082031 347.894531 C 1353.417969 353.269531 1346.328125 357.832031 1338.195312 357.832031 C 1325.144531 357.832031 1314.039062 345.851562 1314.039062 332.421875 C 1314.039062 318.992188 1324.953125 307.035156 1338.195312 307.035156 C 1346.167969 307.035156 1353.230469 311.597656 1356.53125 316.234375 C 1356.984375 316.851562 1357.960938 316.851562 1358.410156 316.328125 L 1361.644531 313.09375 C 1362.003906 312.832031 1362.261719 312.121094 1361.742188 311.40625 C 1356.199219 304.253906 1347.328125 300.402344 1338.195312 300.402344 C 1320.390625 300.402344 1306.167969 314.972656 1306.167969 332.421875 C 1306.167969 349.867188 1320.480469 364.441406 1338.195312 364.441406 C 1347.6875 364.441406 1356.371094 360.136719 1362.261719 352.460938 Z M 1362.292969 352.460938 " fill-opacity="1" fill-rule="nonzero"/><path fill="#000000" d="M 1387.949219 362.398438 L 1387.949219 335.75 L 1421.332031 335.75 L 1421.332031 362.398438 C 1421.332031 363.109375 1421.878906 363.726562 1422.6875 363.726562 L 1427.96875 363.726562 C 1428.679688 363.726562 1429.230469 363.109375 1429.230469 362.398438 L 1429.230469 302.46875 C 1429.230469 301.757812 1428.679688 301.140625 1427.96875 301.140625 L 1422.6875 301.140625 C 1421.878906 301.140625 1421.332031 301.757812 1421.332031 302.46875 L 1421.332031 329.117188 L 1387.949219 329.117188 L 1387.949219 302.46875 C 1387.949219 301.757812 1387.421875 301.140625 1386.710938 301.140625 L 1381.429688 301.140625 C 1380.621094 301.140625 1380.078125 301.757812 1380.078125 302.46875 L 1380.078125 362.398438 C 1380.078125 363.109375 1380.695312 363.726562 1381.429688 363.726562 L 1386.710938 363.726562 C 1387.421875 363.726562 1387.949219 363.109375 1387.949219 362.398438 Z M 1387.949219 362.398438 " fill-opacity="1" fill-rule="nonzero"/><path fill="#000000" d="M 1219.394531 408.417969 L 1196.046875 408.417969 C 1195.238281 408.417969 1194.714844 409.035156 1194.714844 409.773438 L 1194.714844 469.773438 C 1194.714844 470.484375 1195.238281 471.03125 1196.046875 471.03125 L 1201.320312 471.03125 C 1202.039062 471.03125 1202.582031 470.507812 1202.582031 469.773438 L 1202.582031 447.59375 L 1218.683594 447.59375 C 1227.714844 447.5 1235.777344 440.4375 1235.777344 428.101562 C 1235.777344 415.765625 1228.359375 408.511719 1219.394531 408.417969 Z M 1216.183594 440.984375 L 1202.582031 440.984375 L 1202.582031 415.050781 L 1215.992188 415.050781 C 1225.835938 415.050781 1227.886719 422.46875 1227.886719 428.101562 C 1227.886719 433.734375 1225.816406 440.984375 1216.164062 440.984375 Z M 1216.183594 440.984375 " fill-opacity="1" fill-rule="nonzero"/><path fill="#000000" d="M 1272.277344 407.726562 L 1269.949219 407.726562 C 1269.40625 407.726562 1269.046875 407.988281 1268.785156 408.535156 L 1243.558594 469.175781 C 1243.101562 470.246094 1244.007812 471.054688 1244.71875 471.054688 L 1249.8125 471.054688 C 1250.429688 471.054688 1250.8125 470.699219 1250.972656 470.246094 L 1256.0625 457.886719 L 1286.3125 457.886719 L 1291.402344 470.152344 C 1291.59375 470.699219 1291.945312 471.054688 1292.5625 471.054688 L 1297.65625 471.054688 C 1298.554688 471.054688 1299.273438 470.152344 1298.914062 469.269531 L 1273.328125 408.535156 C 1273.160156 408.011719 1272.777344 407.726562 1272.257812 407.726562 Z M 1258.773438 451.277344 L 1271.117188 421.394531 L 1283.550781 451.277344 Z M 1258.773438 451.277344 " fill-opacity="1" fill-rule="nonzero"/><path fill="#000000" d="M 1351.539062 445.003906 C 1357.980469 442.601562 1362.902344 436.0625 1362.902344 427.03125 C 1362.902344 414.671875 1354.417969 408.511719 1346.449219 408.417969 L 1319.511719 408.417969 C 1318.699219 408.417969 1318.179688 409.035156 1318.179688 409.773438 L 1318.179688 469.773438 C 1318.179688 470.484375 1318.722656 471.03125 1319.511719 471.03125 L 1324.792969 471.03125 C 1325.503906 471.03125 1326.042969 470.507812 1326.042969 469.773438 L 1326.042969 446.070312 L 1343.476562 446.070312 L 1355.558594 469.675781 C 1355.914062 470.390625 1356.722656 471.007812 1357.441406 471.007812 L 1362.621094 471.007812 C 1363.332031 471.007812 1364.3125 470.296875 1363.785156 469.128906 L 1351.539062 444.976562 Z M 1343.929688 439.464844 L 1326.042969 439.464844 L 1326.042969 415.050781 L 1343.835938 415.050781 C 1354.300781 415.050781 1355.03125 422.917969 1355.03125 427.03125 C 1355.03125 432.472656 1352.96875 439.464844 1343.929688 439.464844 Z M 1343.929688 439.464844 " fill-opacity="1" fill-rule="nonzero"/><g clip-path="url(#aef26b5307)"><path fill="#000000" d="M 1400.191406 439.726562 L 1430.179688 410.558594 C 1430.890625 409.941406 1430.273438 408.417969 1429.109375 408.417969 L 1423.738281 408.417969 C 1423.019531 408.417969 1422.117188 408.871094 1421.140625 409.773438 L 1392.960938 437.417969 L 1392.960938 409.773438 C 1392.960938 409.058594 1392.441406 408.417969 1391.730469 408.417969 L 1386.449219 408.417969 C 1385.738281 408.417969 1385.089844 409.035156 1385.089844 409.773438 L 1385.089844 469.699219 C 1385.089844 470.414062 1385.710938 471.03125 1386.449219 471.03125 L 1391.730469 471.03125 C 1392.441406 471.03125 1392.960938 470.414062 1392.960938 469.699219 L 1392.960938 442.054688 L 1421.140625 469.699219 C 1421.859375 470.414062 1423.019531 471.03125 1423.738281 471.03125 L 1429.109375 471.03125 C 1430.441406 471.03125 1430.722656 469.605469 1430.082031 468.890625 Z M 1400.191406 439.726562 " fill-opacity="1" fill-rule="nonzero"/></g></svg>