<svg width="98" height="170" viewBox="0 0 98 170" fill="none" xmlns="http://www.w3.org/2000/svg">
<path d="M0.0999985 30.1L97.1 127.1M0.0999985 42.1L97.1 139.1M0.0999985 72.1L97.1 169.1M0.0999985 0.100006L97.1 97.1M18.7872 2.08066L15.9145 53.2446M75.0957 58.1L72.2229 109.264M18.0957 55.1L15.2229 106.264M74.5957 111.1L71.7229 162.264M16.3209 46.2368L17.9557 18.1602L59.9047 60.1092L45.049 74.9649L16.3209 46.2368ZM74.1196 74.3242L72.4848 102.401L30.5358 60.4518L45.3915 45.5961L74.1196 74.3242ZM16.3209 88.1766L17.9557 60.1L59.9047 102.049L45.049 116.905L16.3209 88.1766ZM74.1196 116.264L72.4848 144.34L30.5358 102.392L45.3915 87.5358L74.1196 116.264Z" stroke="black" stroke-opacity="0.3" stroke-width="0.2" stroke-linecap="round"/>
</svg>
