<svg width="911" height="169" viewBox="0 0 911 169" fill="none" xmlns="http://www.w3.org/2000/svg">
<g clip-path="url(#clip0_1_2)">
<path d="M181.5 135L172.9 112.9H144.6L136.1 135H127L154.9 63.3H163L190.8 135H181.5ZM162.2 83.3C162 82.7667 161.667 81.8 161.2 80.4C160.733 79 160.267 77.5667 159.8 76.1C159.4 74.5667 159.067 73.4 158.8 72.6C158.467 73.9333 158.1 75.3 157.7 76.7C157.367 78.0333 157 79.2667 156.6 80.4C156.267 81.5333 155.967 82.5 155.7 83.3L147.6 104.9H170.2L162.2 83.3ZM173.6 41.6C173 42.5333 172.133 43.6667 171 45C169.867 46.3333 168.6 47.7333 167.2 49.2C165.867 50.6 164.5 51.9667 163.1 53.3C161.767 54.5667 160.5 55.6667 159.3 56.6H153.5V55.4C154.5 54.1333 155.567 52.6333 156.7 50.9C157.9 49.1667 159.067 47.4 160.2 45.6C161.333 43.7333 162.267 42.0667 163 40.6H173.6V41.6ZM232.467 136.5C210.867 136.5 195.167 119.5 195.167 98.5C195.167 77.5 211.967 60.4 232.567 60.4C244.467 60.4 255.267 66.2 262.067 74.9L254.067 80C248.967 73.4 241.267 68.9 232.567 68.9C217.167 68.9 204.467 82.8 204.467 98.5C204.467 114.2 216.067 128 232.467 128C248.367 128 258.267 118.9 259.267 105.5H229.967V97.5H268.967C268.967 97.5 269.167 100.4 268.767 104.9C267.167 123.4 254.767 136.5 232.467 136.5ZM314.508 136.5C292.908 136.5 277.108 119.5 277.108 98.4C277.108 77.4 292.908 60.3 314.508 60.3C336.308 60.3 352.108 77.4 352.108 98.4C352.108 119.5 336.308 136.5 314.508 136.5ZM314.508 68.8C299.108 68.8 286.408 82.7 286.408 98.4C286.408 114.2 299.108 128.1 314.508 128.1C330.108 128.1 342.708 114.2 342.708 98.4C342.708 82.7 330.108 68.8 314.508 68.8ZM392.709 110.3H373.909V135H364.509V61.8H396.709C410.809 61.8 420.909 71.8 420.909 86.1C420.909 98.9 413.809 107.2 402.909 109.7L421.709 135H410.609L392.709 110.3ZM373.909 69.6V102.2H395.009C404.709 102.2 411.709 97.4 411.709 86.1C411.709 80.6 408.509 69.6 395.709 69.6H373.909ZM435.966 135H425.366L461.366 61.8H463.366L499.366 135H488.666L482.166 121.1H442.466L435.966 135ZM462.466 79.3L446.466 113.2H478.266L462.466 79.3Z" fill="black"/>
<path d="M505.686 129.9C505.686 126.8 508.286 124.2 511.386 124.2C514.486 124.2 517.086 126.8 517.086 129.9C517.086 133 514.486 135.6 511.386 135.6C508.286 135.6 505.686 133 505.686 129.9ZM544.508 122.6H583.208V135H530.508V61.8H544.508V122.6ZM607.031 61.8V135H593.031V61.8H607.031ZM687.663 135H686.163L637.963 91.5V135H624.063V61.8H625.563L673.663 106.1V61.8H687.663V135ZM757.452 74.2H717.552V92.5H752.952V104.9H717.552V122.6H757.452V135H703.652V61.8H757.452V74.2ZM803.314 136.3C784.314 136.3 771.914 124.2 771.914 105.5V61.8H785.914V105.5C785.914 120.2 796.814 124 803.314 124C809.814 124 820.714 120.2 820.714 105.5V61.8H834.714V105.5C834.714 124.2 822.414 136.3 803.314 136.3ZM850.723 61.8H881.123C898.723 61.8 909.323 72.8 909.323 87.8C909.323 102.9 899.823 113.2 881.023 113.2H864.723V135H850.723V61.8ZM864.723 100.8H881.923C890.323 100.8 895.323 95 895.323 87.8C895.323 80.4 890.123 74.2 881.423 74.2H864.723V100.8Z" fill="#FF8400"/>
<path d="M0 30L97 127M0 42L97 139M0 72L97 169M0 0L97 97M18.6872 1.98066L15.8145 53.1446M74.9957 58L72.1229 109.164M17.9957 55L15.1229 106.164M74.4957 111L71.6229 162.164M16.2209 46.1368L17.8557 18.0602L59.8047 60.0092L44.949 74.8649L16.2209 46.1368ZM74.0196 74.2241L72.3848 102.301L30.4358 60.3518L45.2915 45.4961L74.0196 74.2241ZM16.2209 88.0766L17.8557 60L59.8047 101.949L44.949 116.805L16.2209 88.0766ZM74.0196 116.164L72.3848 144.24L30.4358 102.292L45.2915 87.4358L74.0196 116.164Z" stroke="black" stroke-opacity="0.3" stroke-width="0.2" stroke-linecap="round"/>
</g>
<defs>
<clipPath id="clip0_1_2">
<rect width="911" height="169" fill="white"/>
</clipPath>
</defs>
</svg>
